<svg width="227" height="192" viewBox="0 0 227 192" fill="none" xmlns="http://www.w3.org/2000/svg">
<mask id="mask0_1_5728" style="mask-type:alpha" maskUnits="userSpaceOnUse" x="0" y="0" width="227" height="192">
<path d="M48.2542 0L226.111 71.719L177.857 191.385L-4.83096e-05 119.666L48.2542 0Z" fill="white"/>
</mask>
<g mask="url(#mask0_1_5728)">
<path fill-rule="evenodd" clip-rule="evenodd" d="M209.991 99.0073C209.966 98.9903 209.942 98.9795 209.917 98.9586C209.86 98.9093 209.809 98.8537 209.764 98.7931C209.888 98.8172 209.997 98.8523 210.01 98.9175C210.016 98.9471 210.007 98.9774 209.991 99.0073ZM220.762 84.3008L220.767 84.1108L220.745 83.9226C220.684 83.3743 220.297 81.5438 217.932 81.0203C217.546 80.9347 217.156 80.8564 216.768 80.7777L216.547 80.7331C215.622 80.5454 211.468 79.7777 210.191 79.5864C209.858 79.5356 209.221 79.4244 208.485 79.2954C206.341 78.9187 204.765 78.6493 204.034 78.6059C203.675 78.5848 203.274 78.5319 202.852 78.4759C202.595 78.4418 202.339 78.4082 202.083 78.3789C201.164 78.2753 200.363 78.4591 199.565 78.9573C199.325 79.1083 199.099 79.2797 198.888 79.4695C198.736 79.1803 198.56 78.9038 198.363 78.6425C197.52 77.5382 195.939 76.8945 195.872 76.8673C195.257 76.6202 193.767 76.1773 193.159 76.0845C192.602 75.999 191.288 75.8828 190.308 76.0589C189.549 76.1956 187.525 76.9394 186.629 77.6956C186.469 77.8302 186.316 77.9718 186.171 78.1187C186.039 77.7681 185.875 77.4302 185.682 77.1093C184.822 75.6904 183.485 75.068 182.551 74.7221C182.272 74.6186 181.849 74.4598 181.35 74.3907C181.219 74.3698 180.727 74.2809 180.558 74.2428C180.467 74.2227 180.331 74.1944 179.952 74.1271C179.662 73.467 179.361 72.8121 179.048 72.1625L179.782 71.5215L178.978 69.652C176.663 64.2676 173.036 59.8811 169.52 55.8497C159.482 44.3405 146.109 37.4864 129.784 35.4778C121.919 34.5097 111.013 36.1334 100.609 39.8199C95.6535 41.576 84.0082 46.2876 80.5606 52.8098C77.4526 55.6112 74.6318 58.7165 72.1404 62.0794C71.3378 61.7042 70.0788 61.5014 68.5437 62.5793L68.4988 62.6099C68.2148 62.8058 67.9871 62.9485 67.7818 63.0579C67.3094 63.3094 66.9408 63.469 66.6414 63.5516L66.5642 63.3917C65.5147 61.2013 64.2798 59.3106 62.8952 57.7723C62.2532 57.0584 61.5898 56.364 60.906 55.6901C60.1862 54.9823 59.3609 54.4859 58.6985 54.0872L58.4704 53.95C57.5961 53.4186 56.7349 53.1319 55.9752 52.8778C55.7456 52.8012 55.5157 52.7252 55.2887 52.6406C54.4536 52.3289 53.5755 52.091 52.5265 51.8929C50.0443 51.4209 47.6273 51.5829 45.3704 51.822C44.0196 51.9657 42.797 52.1102 41.5181 52.4339C40.3074 52.7401 39.1211 53.1365 37.9693 53.6199C35.5707 54.6288 33.4449 55.9744 31.4739 57.265C30.9733 57.5935 30.3919 57.9827 29.8309 58.4539C29.3927 58.8221 29.0163 59.2042 28.6835 59.5419C28.5802 59.6465 28.4773 59.7518 28.3707 59.8578C28.1359 60.0902 27.8899 60.3126 27.646 60.5351C27.3712 60.7841 27.0965 61.0346 26.8313 61.2945C25.5217 62.5747 24.0604 64.3999 22.4868 66.7207C21.4817 68.2037 20.7828 69.5096 20.0413 70.8921C19.8432 71.2626 19.6391 71.6431 19.4216 72.0412C18.276 74.1326 17.3736 76.3484 16.7322 78.6451C16.4025 79.8332 16.1177 81.0839 15.8849 82.364C15.8479 82.5663 15.7515 83.0257 15.6455 83.535C15.4271 84.5849 15.2792 85.3013 15.2201 85.677C15.0142 86.9819 14.9983 88.2325 14.9998 89.5054C15.0015 90.8243 15.0478 91.9017 15.1457 92.894C15.4177 95.6444 16.1352 98.1652 17.2781 100.386C17.8263 101.45 18.3808 102.38 18.9718 103.228C19.704 104.279 20.4431 105.299 21.4343 106.23C23.3426 108.022 25.4346 109.167 27.2297 110.051C29.2433 111.042 31.4699 111.695 34.0323 112.053C34.634 112.135 35.2363 112.211 35.8393 112.273C36.162 112.307 36.4624 112.306 38.2988 112.156C38.2966 112.161 38.2947 112.166 38.2915 112.17L38.2624 112.229C38.0939 112.557 37.7433 113.24 37.7571 114.135C37.7787 115.602 38.6794 116.873 39.9983 117.298C40.1096 117.333 40.2493 117.371 40.4115 117.399C41.2471 117.546 42.6903 117.459 43.9921 115.701L44.47 115.058C45.0953 114.219 46.1484 112.805 46.6558 112.118C47.2257 111.346 47.7084 110.59 48.1749 109.858C48.3641 109.562 48.5542 109.263 48.7528 108.961C48.917 108.711 49.7452 107.62 50.1438 107.095L50.4321 106.714C50.6409 107.388 50.9054 108.043 51.2227 108.673C51.5931 109.412 52.1811 110.505 53.0049 111.472C53.9006 112.522 54.8951 113.291 55.6629 113.844C56.678 114.574 57.5465 115.108 58.3965 115.524C58.8184 115.73 59.7264 116.137 60.4502 116.344L60.8961 116.475C61.3445 116.609 61.7939 116.74 62.2442 116.867C63.159 120.037 64.3215 123.13 65.721 126.117C67.6625 131.882 71.0741 137.378 76.4453 143.397C85.9885 154.09 97.5771 160.671 110.984 163.03C113.774 163.52 116.644 163.829 119.589 163.953C136.619 164.672 151.76 159.216 164.594 147.738C167.159 145.443 170.066 142.843 171.431 138.709L171.439 138.683C172.137 137.813 172.811 136.925 173.461 136.019C176.052 136.452 179.298 136.982 180.279 137.1C180.915 137.176 181.535 137.256 182.118 137.375C182.431 137.44 182.744 137.494 183.056 137.546C183.451 137.613 183.82 137.674 184.131 137.758C185.129 138.027 186.137 138.256 187.153 138.445C188.054 138.628 188.801 138.498 189.387 138.276C189.558 138.463 189.742 138.638 189.946 138.792C190.518 139.217 191.181 139.501 191.883 139.62C193.502 139.905 195.278 139.374 196.388 138.114C197.406 136.957 197.904 135.492 197.721 134.193C197.564 133.074 196.942 132.118 195.97 131.498C195.513 131.208 195.008 131.001 194.479 130.886C195.758 128.693 196.446 127.257 196.525 126.613C196.688 125.267 195.982 124.024 194.826 123.473C193.46 122.678 191.539 122.743 190.065 124.643C189.36 125.383 185.674 127.9 184.6 128.428C183.957 128.747 183.296 129.028 182.621 129.27C182.146 129.439 181.772 129.549 181.486 129.54C180.995 129.525 180.449 129.438 179.787 129.327C179.54 129.285 179.228 129.234 178.907 129.183L178.943 129.094C179.05 128.822 179.225 128.498 179.411 128.156C179.497 127.998 179.582 127.84 179.665 127.682C179.871 127.294 181.278 124.988 182.208 123.462L182.844 122.418C182.867 122.864 182.98 123.3 183.176 123.7C183.382 124.129 183.681 124.507 184.05 124.806C184.419 125.106 184.85 125.32 185.311 125.434C186.293 125.677 187.344 125.452 188.2 124.82C189.126 124.134 189.668 123.204 190.064 122.526C190.135 122.405 190.203 122.286 190.272 122.177C190.551 121.731 190.835 121.29 191.118 120.848C191.301 120.564 191.484 120.28 191.665 119.994C191.893 119.635 192.15 119.268 192.423 118.879C192.997 118.059 193.649 117.127 194.155 116.064L194.176 116.021C194.447 115.455 195.166 113.954 194.378 112.424C194.179 112.035 193.899 111.692 193.558 111.418C193.216 111.145 192.821 110.947 192.398 110.837C191.699 110.657 191.071 110.746 190.567 110.914C190.781 110.624 190.962 110.382 191.093 110.205C191.305 109.923 191.51 109.636 191.715 109.349C191.937 109.039 192.159 108.728 192.392 108.425C192.565 108.2 192.733 107.97 192.903 107.738C193.178 107.361 193.439 107.004 193.693 106.721C193.789 106.612 193.887 106.505 193.982 106.404L194.17 106.433C194.856 106.541 195.544 106.65 196.223 106.774C196.904 106.895 197.576 107.06 198.234 107.27C198.688 107.419 198.93 107.536 199.055 107.608C199.058 107.719 199.059 107.86 199.058 107.974L199.059 108.025C199.06 108.333 199.035 108.56 198.984 108.717C198.913 108.934 198.84 109.149 198.768 109.363C198.561 109.969 198.349 110.595 198.172 111.276L198.128 111.403C197.795 112.345 197.175 114.098 198.283 115.609C198.902 116.456 199.879 116.921 200.961 116.884C202.728 116.824 203.688 115.476 204.049 114.969C204.069 114.942 204.088 114.914 204.106 114.885C204.624 114.283 204.972 113.657 205.244 113.126C205.491 112.645 205.859 112.132 206.25 111.589C206.365 111.429 206.481 111.268 206.594 111.107C207.007 110.522 207.367 109.931 207.715 109.361L207.911 109.041C208.407 108.233 209.025 107.228 209.364 106.017C209.657 104.963 209.616 104.117 209.41 103.448C209.553 103.447 209.697 103.453 209.838 103.443C212.689 103.224 215.002 100.939 215.103 98.2253C215.124 97.5569 214.994 96.8925 214.722 96.2822C214.45 95.6718 214.044 95.1311 213.533 94.7008C212.989 94.2429 212.35 93.9124 211.663 93.7332C210.975 93.5541 210.256 93.5308 209.558 93.6652L209.557 93.6647C209.453 93.6856 209.351 93.7106 209.249 93.7398C209.5 93.3441 209.75 92.957 210.007 92.5866L210.205 92.299C210.303 92.1573 210.399 92.0166 210.498 91.8774C210.683 91.6148 210.864 91.3479 211.046 91.0809C211.3 90.7047 211.541 90.3505 211.784 90.0267C212.233 89.4291 212.625 88.8332 213.004 88.2567C213.138 88.0538 213.268 87.8539 213.399 87.66C213.485 87.8916 213.597 88.1129 213.736 88.3222C213.968 88.672 214.268 88.9706 214.62 89.1996C214.971 89.4286 215.365 89.5832 215.778 89.6539C216.346 89.7534 218.206 89.881 219.304 87.6157L219.312 87.5994C219.356 87.524 219.423 87.4207 219.498 87.3006C220.266 86.0757 220.739 85.2758 220.761 84.302L220.762 84.3008Z" fill="#FFFFFE"/>
<path fill-rule="evenodd" clip-rule="evenodd" d="M181.602 110.293C175.84 142.926 144.749 164.732 112.157 158.998C79.5661 153.263 57.8171 122.16 63.5803 89.5267C69.3426 56.8938 100.434 35.0885 133.025 40.8234C165.616 46.5577 187.365 77.6604 181.603 110.293" fill="white"/>
</g>
<path fill-rule="evenodd" clip-rule="evenodd" d="M132.983 41.1413C130.087 40.855 127.271 40.358 124.45 40.3433C118.276 40.3104 119.024 39.6899 120.033 45.6643C120.056 45.7973 120.204 45.9084 120.374 46.1406C124.893 45.7501 130.307 47.95 132.984 41.1415L132.983 41.1413ZM116.721 40.3314L102.516 44.2642C103.677 45.7167 104.463 46.7603 105.319 47.7408C105.642 48.1106 106.187 48.6483 106.531 48.5809C110.283 47.8472 114.015 47.0079 117.907 46.1636L116.721 40.3314ZM132.127 46.2264C145.028 47.9221 156.48 52.4729 166.612 60.3339C165.583 58.8471 164.5 57.454 163.25 56.233C156.818 49.9479 149.168 45.75 140.63 43.0846C136.364 41.7542 135.216 42.1141 132.127 46.2264ZM82.5718 56.3781C84.2659 47.5633 112.82 36.7058 129.599 38.7423C144.562 40.5588 157.51 46.6373 167.527 58.1833C171.008 62.1951 174.39 66.3575 176.494 71.2941L175.755 71.9442C175.098 71.4258 174.349 70.9904 173.795 70.3773C162.832 58.234 149.24 51.0653 133.086 48.7629C132.325 48.6547 130.955 48.7989 130.813 49.1775C130.499 50.0204 130.479 51.2551 130.893 52.0231C131.577 53.2872 132.582 54.4421 133.661 55.4062C137.585 58.913 141.613 62.3014 145.561 65.7811C146.425 66.5422 147.121 67.494 147.895 68.3579L147.363 69.0398C146.759 68.7406 146.063 68.5499 145.565 68.1257C140.969 64.2128 136.386 60.2844 131.845 56.3078C129.585 54.3304 127.593 52.1547 128.294 48.4468C125.931 48.4831 123.856 48.3976 121.819 48.641C121.386 48.6933 120.728 49.9869 120.791 50.6451C121.162 54.5149 121.734 58.3634 122.192 62.2246C122.285 63.004 122.183 63.8079 122.17 64.6005L121.367 64.814C121.048 63.9876 120.583 63.187 120.434 62.3296C119.785 58.5759 119.18 54.8118 118.66 51.0363C118.439 49.4272 117.857 48.629 116.107 49.002C114.824 49.2754 113.49 49.2915 112.203 49.5507C110.688 49.8551 108.781 49.8689 107.826 50.8104C107.002 51.6226 107.277 53.5604 107.062 55.0003C106.742 57.1512 106.264 59.1964 103.2 60.3961C104.321 57.2764 105.832 54.7688 104.448 51.5332L90.3768 57.9649L89.7623 57.1269C90.4296 56.48 90.9953 55.6335 91.783 55.2203C95.0145 53.5256 98.3136 51.9598 101.59 50.3512C102.201 50.0514 102.821 49.7711 103.438 49.4818C101.558 45.5082 100.524 44.9218 97.1101 46.9816C93.071 49.4177 89.2957 52.3025 85.4426 55.044C84.6033 55.6403 83.9144 56.4511 83.1567 57.1639L82.5716 56.3787L82.5718 56.3781ZM130.189 121.371L135.383 158.364C149.003 155.259 159.837 148.269 168.942 138.197C167.826 141.576 165.351 143.821 162.909 146.007C150.687 156.95 136.343 162.19 119.99 161.507C103.572 160.821 89.8555 154.192 78.9254 141.931C73.7987 136.18 69.5012 129.893 67.798 122.052C74.9261 136.382 84.8135 147.882 99.8524 154.398C93.287 141.525 89.0929 135.604 88.224 121.118L89.2651 120.767C89.5535 121.534 90.0287 122.281 90.1027 123.068C91.3288 136.004 94.8089 140.547 100.923 151.891C102.618 155.036 104.847 156.82 108.441 157.62C115.904 159.28 123.343 160.04 130.962 159.147C133.017 158.906 133.689 158.272 133.374 156.091C131.886 145.763 130.554 135.412 129.192 125.065C129.039 123.895 129.045 122.703 128.977 121.52L130.189 121.371Z" fill="black"/>
<path fill-rule="evenodd" clip-rule="evenodd" d="M62.4766 65.5475C62.9842 66.6145 63.4617 67.7182 63.7735 68.8573C64.0315 69.7973 64.2253 70.7691 64.1797 71.7384C64.1678 72.0023 64.1344 73.0482 64.0995 73.3327C64.0508 73.7293 63.9881 74.1223 63.9115 74.5139C63.8289 74.9393 63.7489 75.365 63.673 75.791C63.6215 76.0807 63.5506 76.5184 63.9452 76.5995C64.3459 76.6825 64.5265 76.1519 64.6882 75.8767C64.9602 75.4157 65.2888 75.0435 65.6251 74.63C65.9256 74.2604 66.2224 73.8895 66.5229 73.5199C67.2568 72.6166 67.932 71.7035 68.6325 70.7742C69.2119 70.0077 71.0309 67.4538 71.218 66.9175C71.3558 66.5241 71.8535 66.01 71.4341 65.6321C71.0955 65.3278 70.7063 65.64 70.4119 65.8414C70.0908 66.062 69.7656 66.2692 69.4206 66.4509C68.4595 66.9584 67.4663 67.366 66.3629 67.3269C65.8976 67.3112 65.1059 67.1242 64.8999 66.6653C64.7265 66.2786 64.539 65.8996 64.3538 65.518C63.4937 63.7401 62.4313 62.0282 61.0992 60.5577C60.4904 59.8849 59.8617 59.2305 59.2138 58.5954C58.6599 58.0532 57.9328 57.6459 57.2741 57.2466C56.4242 56.732 55.4706 56.5041 54.5509 56.1611C53.79 55.8772 53.0279 55.6861 52.2324 55.5345C50.1306 55.1338 47.9782 55.2619 45.8618 55.4797C44.6948 55.6 43.5247 55.7282 42.3849 56.0119C41.3068 56.2802 40.2501 56.6289 39.2237 57.0549C37.0652 57.9525 35.1103 59.1722 33.1598 60.4397C32.6851 60.7487 32.2156 61.0619 31.7802 61.425C31.3198 61.8087 30.9149 62.2476 30.4887 62.6673C29.9844 63.1648 29.44 63.6191 28.932 64.1123C27.5158 65.488 26.0464 67.4694 24.9452 69.0891C23.7627 70.8277 23.0308 72.3207 22.0207 74.1657C20.9775 76.0628 20.1579 78.0746 19.5783 80.1606C19.2628 81.3015 19.0033 82.4601 18.7932 83.6255C18.6989 84.1471 18.2343 86.2984 18.1463 86.8663C17.9712 87.988 17.9641 89.1169 17.968 90.2495C17.9722 91.2883 18.0046 92.3294 18.1094 93.3635C18.3397 95.621 18.9204 97.8249 19.9716 99.8454C20.4201 100.72 20.9264 101.564 21.4873 102.371C22.122 103.275 22.7759 104.179 23.5864 104.936C25.1187 106.368 26.8624 107.376 28.7362 108.297C30.6407 109.234 32.6249 109.759 34.7214 110.054C35.294 110.134 35.8679 110.206 36.4428 110.267C36.6836 110.292 38.5943 110.131 38.7477 110.121C39.0486 110.102 39.3442 110.031 39.6454 110.026C40.2135 110.011 40.7648 110.218 41.1832 110.602C41.4174 110.812 41.6717 111.622 41.6618 111.886C41.6491 112.224 41.6566 112.535 41.55 113.145C41.4676 113.613 41.2466 113.956 41.1376 114.178C41.0371 114.383 40.8852 114.632 40.8889 114.867C40.8969 115.308 41.2952 115.9 42.0995 114.818C42.2773 114.579 44.0536 112.207 44.7614 111.253C45.4977 110.26 46.0914 109.264 46.7705 108.232C47.0916 107.745 48.5278 105.892 48.8935 105.397C49.1503 105.049 49.6661 104.258 49.8075 103.819C49.9371 103.415 49.3069 103.119 48.8271 103.253C48.3881 103.375 47.9694 103.843 47.6107 104.113C47.1414 104.465 46.6415 104.781 46.1449 105.094C45.1725 105.709 44.1528 106.374 43.0523 106.727C41.9304 107.089 40.7743 107.335 39.6023 107.459C38.4035 107.583 37.3056 107.695 36.1038 107.666C34.9364 107.637 33.9483 107.636 32.8096 107.347C32.5501 107.281 31.9447 107.049 31.7298 106.893C31.5118 106.734 31.3167 106.492 31.1447 106.287C30.7996 105.875 30.5196 105.409 30.2596 104.941C29.8217 104.164 29.4273 103.362 29.0783 102.54C28.2354 100.522 27.7516 98.2295 27.6864 96.0462C27.617 93.736 28.1078 91.4386 28.5562 89.1861C28.9865 87.0301 29.5916 84.9542 30.4377 82.9247C31.2479 80.981 32.0662 79.3169 33.2432 77.5816C33.9974 76.4693 34.8862 75.2971 35.619 74.1707C36.8084 72.3409 38.354 70.5614 39.7421 68.873C40.9989 67.3446 42.3063 65.8805 43.7461 64.5185C45.3454 63.0057 46.9694 61.5161 48.7874 60.262C49.6842 59.6436 50.6074 59.0304 51.6349 58.6512C52.0967 58.4811 52.5786 58.3044 53.0714 58.2588C53.6267 58.2085 54.1777 58.2393 54.7287 58.3181C55.2804 58.3972 55.8782 58.4858 56.3897 58.7129C56.8774 58.9298 57.3568 59.1795 57.8174 59.4466C58.5448 59.8701 59.1878 60.6584 59.7477 61.2837C60.3487 61.9555 60.8188 62.7158 61.2845 63.4819C61.6981 64.1617 62.1066 64.8422 62.4766 65.5475Z" fill="black"/>
<path fill-rule="evenodd" clip-rule="evenodd" d="M82.0913 94.5321C81.7435 95.7115 81.3189 96.8404 80.7682 97.9408C80.0615 99.3521 79.313 100.757 78.4454 102.075C77.9473 102.831 77.5521 103.647 77.058 104.406C76.5792 105.142 76.0305 105.815 75.4457 106.47C74.4072 107.632 73.3129 108.751 71.9407 109.518C70.4981 110.323 69.3196 110.401 67.3173 110.341C65.9481 110.119 64.3212 109.662 63.606 108.316C62.7348 106.674 62.815 104.696 63.1118 102.917C63.3286 101.618 63.5995 100.299 64.1324 99.0873C64.8067 97.553 65.5609 96.0892 66.4095 94.6461C67.9867 91.9648 69.7053 89.3155 71.9081 87.1037C73.1075 85.8987 74.5219 84.9323 76.019 84.1328C76.7609 83.7366 77.5315 83.3555 78.3778 83.2534C78.7399 83.2101 79.1344 83.1826 79.4847 83.303C79.6862 83.3717 79.9595 83.4813 80.1435 83.5867C80.1965 83.6172 80.935 84.1356 81.0772 84.2792C81.2469 84.4493 81.4058 84.789 81.5168 85.0015C81.7201 85.3897 81.8617 85.7552 82.0158 86.1639C82.3151 86.9584 82.4099 87.7845 82.5081 88.6315C82.6212 89.6 82.5626 90.5982 82.5265 91.5699C82.4929 92.5703 82.3469 93.564 82.0913 94.5321ZM82.5031 108.57C83.8304 107.323 84.9676 105.949 86.0844 104.513C87.051 103.268 87.9488 102.025 88.6319 100.602C89.0563 99.7148 89.4993 98.8021 89.8452 97.8822C90.175 97.0059 90.3655 96.0888 90.5149 95.1621C90.799 93.403 90.723 91.5828 90.2068 89.8755C89.9147 88.926 89.5744 87.9921 89.187 87.0776C88.8463 86.265 88.3947 85.5226 87.8822 84.8037C87.4276 84.1752 86.9082 83.5962 86.3328 83.0764C85.6736 82.4765 85.0407 81.9477 84.2842 81.4791C83.517 81.0041 82.7076 80.4133 81.8565 80.1069C81.0533 79.8178 80.1997 79.5641 79.3587 79.422C78.4316 79.2594 77.4894 79.1985 76.5489 79.2404C76.1036 79.2592 75.5935 79.2804 75.1468 79.3029C74.6814 79.3268 74.2185 79.4032 73.7625 79.497C71.9222 79.8742 70.082 80.6063 68.4213 81.4756C67.5986 81.9067 66.662 82.3427 65.8986 82.8714C65.1494 83.3907 64.4571 83.8103 63.6947 84.3158C62.264 85.2625 60.9649 86.4237 59.8234 87.7056C58.804 88.8501 57.9317 89.873 57.2358 91.1146C56.7175 92.0381 56.4078 92.9732 56.0942 93.9215C55.7984 94.817 55.5921 95.7388 55.4637 96.674C55.2348 98.3441 55.0621 99.9957 55.0975 101.679C55.118 102.633 55.3319 103.647 55.5075 104.587C55.6623 105.418 55.9654 106.209 56.3445 106.963C56.7335 107.736 57.1854 108.526 57.7497 109.187C58.381 109.927 59.1136 110.524 59.901 111.09C60.6348 111.618 61.4061 112.123 62.2197 112.52C62.6455 112.729 63.3546 113.031 63.8092 113.161C64.1957 113.273 65.5073 113.671 65.9311 113.771C66.437 113.889 67.08 114.022 67.593 114.103C68.5766 114.256 69.3923 114.234 70.3846 114.109C71.3514 113.987 72.2932 113.755 73.2242 113.472C73.6912 113.331 74.1444 113.154 74.6098 113.006C75.033 112.872 75.458 112.75 75.8592 112.571C76.1843 112.427 76.5379 112.267 76.8726 112.145C77.3194 111.982 77.7091 111.789 78.1352 111.581C78.9905 111.163 79.7916 110.643 80.5657 110.093C81.231 109.62 81.9058 109.129 82.5031 108.57ZM146.2 95.3227C146.721 95.4975 147.097 95.7034 147.428 96.1502C147.748 96.5803 147.984 97.0423 147.932 97.5963C147.826 98.7236 147.512 99.898 147.181 100.978C147.029 101.475 146.82 101.931 146.627 102.411C146.554 102.591 146.479 102.792 146.58 102.976C146.679 103.157 146.876 103.213 147.062 103.134C147.456 102.968 147.765 102.373 147.996 102.035C148.118 101.856 150.158 98.8488 150.865 97.831C151.247 97.2752 151.649 96.7327 152.068 96.2044C152.315 95.8963 152.622 95.5844 152.757 95.2057C152.929 94.7216 152.725 94.1996 152.315 93.9208C151.627 93.4527 147.86 93.0201 146.859 92.8698C145.976 92.7374 142.197 92.0785 141.185 91.8973C140.134 91.7103 139.094 91.4572 138.035 91.3134C136.939 91.166 135.859 90.9637 134.765 90.8004C133.629 90.6308 132.498 90.4358 131.374 90.1965C130.882 90.0914 130.4 89.9936 129.897 89.9654C129.685 89.9531 128.929 89.947 128.781 90.1453C128.299 90.7849 129.735 90.9539 129.868 91.3751C129.964 91.6782 129.674 92.2183 129.555 92.5019C129.371 92.9419 129.206 93.3913 128.964 93.8045C128.478 94.6356 128.049 95.5097 127.53 96.32C127.116 96.9658 126.675 97.6053 126.3 98.2762C126.133 98.5744 125.976 98.8776 125.808 99.1746C125.819 99.1702 125.829 99.1651 125.839 99.1594C125.409 99.8116 125.069 100.521 124.655 101.185C124.18 101.947 123.658 102.678 123.192 103.446C122.552 104.505 121.939 105.58 121.352 106.669C120.977 107.362 120.634 108.068 120.281 108.773C119.928 109.48 119.524 110.161 119.169 110.868C118.689 111.823 116.2 116.267 115.37 117.488C114.967 118.081 114.628 118.708 114.19 119.277C113.633 120.004 112.859 120.364 112.015 120.655C111.748 120.747 111.457 120.797 111.223 120.964C110.888 121.204 110.876 121.602 111.214 121.837C111.517 122.047 111.92 122.106 112.273 122.181C112.62 122.257 112.969 122.326 113.315 122.405C114.197 122.604 121.838 123.663 122.172 123.7C122.365 123.721 122.558 123.772 122.751 123.8C122.998 123.837 123.28 123.88 123.517 123.774C123.883 123.61 123.964 123.178 123.753 122.856C123.57 122.576 123.26 122.416 123.047 122.167C122.766 121.836 122.735 121.412 122.826 120.999C122.901 120.66 130.797 106.767 130.833 106.702C130.851 106.591 130.905 106.57 130.995 106.637C131.197 106.637 131.471 106.79 131.664 106.852C131.843 106.909 132.021 106.966 132.201 107.021C132.491 107.109 132.783 107.191 133.075 107.272C133.553 107.407 134.06 107.508 134.507 107.725C134.835 107.884 135.135 108.144 135.141 108.531C135.146 108.898 135.053 109.26 135.014 109.621C134.979 109.943 134.636 111.295 135.222 111.253C135.604 111.226 135.917 110.604 136.08 110.319C136.262 109.999 136.452 109.684 136.628 109.361C137.462 107.823 138.53 106.433 139.334 104.873C139.45 104.65 139.86 104.046 139.682 103.786C139.468 103.47 138.997 103.996 138.835 104.141C138.191 104.717 137.545 105.346 136.776 105.749C136.414 105.939 135.997 106.096 135.594 106.164C135.232 106.225 134.9 106.116 134.553 106.027C134.169 105.929 133.783 105.831 133.399 105.729C132.815 105.574 132.25 105.385 131.667 105.205C132.069 104.592 133.778 101.44 133.941 101.117C134.442 100.129 135.038 99.1791 135.599 98.2241C135.94 97.6432 136.236 97.0362 136.543 96.4372C136.791 95.9526 137.042 95.4059 137.371 94.9743L137.341 94.9994C137.523 94.7251 137.761 94.2197 138.04 94.0511C138.303 93.8925 138.685 93.8551 138.982 93.835C139.368 93.8069 139.756 93.8218 140.138 93.8794C140.518 93.9394 140.895 94.0709 141.273 94.1478C142.097 94.3169 142.915 94.4533 143.727 94.6731C144.549 94.8958 145.381 95.0881 146.2 95.3221L146.2 95.3227ZM117.678 89.1607C118.336 89.3845 118.93 89.8455 119.408 90.3455C119.661 90.6104 119.897 90.9062 120.053 91.2404C120.143 91.4349 120.178 91.54 120.131 91.7558L120.097 91.9099C119.973 92.4912 119.02 94.8458 118.837 95.1045C118.557 95.5002 117.913 96.2431 118.468 96.6887C119.008 97.1231 119.572 96.3873 119.86 95.9971C120.507 95.1179 121.047 94.1368 121.656 93.2297C121.875 92.9038 122.061 92.5561 122.317 92.2599C122.49 92.0609 122.647 91.8488 122.807 91.6396C123.146 91.1933 123.436 90.7106 123.793 90.2797C124.127 89.8767 124.866 89.2107 124.664 88.6194C124.485 88.0989 123.834 87.9868 123.369 87.9143C122.817 87.828 122.264 87.8237 121.715 87.7219C121.153 87.6167 120.586 87.5487 120.021 87.4684C119.25 87.3579 118.481 87.2826 117.717 87.1325C117.342 87.0576 116.966 86.9874 116.591 86.912C114.583 86.5077 112.541 86.2562 110.527 85.8834C108.381 85.4863 106.2 85.2536 104.072 84.7532C102.935 84.486 101.685 84.0746 100.497 84.1781C100.243 84.2005 99.8561 84.251 99.8915 84.5939C99.9212 84.8787 100.23 84.9642 100.378 85.1589C100.641 85.5029 100.873 86.0474 100.843 86.4783C100.811 86.9546 100.762 87.4204 100.533 87.8481C100.332 88.2226 100.122 88.5921 99.9075 88.9595C99.4736 89.7047 99.055 90.4533 98.5963 91.1843C98.0473 92.0598 97.5497 92.9631 96.9826 93.8285C96.2126 95.0041 95.4136 96.1519 94.6996 97.3625C93.4231 99.5289 92.1295 101.679 90.8095 103.819C90.2764 104.683 84.4192 113.9 83.8 114.536C83.2865 115.064 82.6054 115.04 81.9432 115.222C81.6776 115.295 81.3418 115.392 81.2816 115.71C81.2129 116.075 81.5796 116.206 81.8588 116.277C82.2606 116.376 82.6731 116.408 83.0799 116.475C83.7346 116.585 91.5374 118.172 92.0673 118.286C92.5607 118.393 93.4163 118.65 93.7498 118.531C93.9999 118.441 94.0992 118.174 94.0204 117.922C93.9392 117.662 93.691 117.519 93.4776 117.378C93.2963 117.258 93.107 117.143 93.0093 116.941C92.8323 116.579 92.8639 116.118 92.9657 115.741C93.1248 115.155 93.3907 114.567 93.6904 114.039C94.0288 113.444 94.3659 112.85 94.7261 112.268C95.0724 111.709 95.9471 110.255 95.9965 110.189C96.0756 110.086 96.4664 109.479 96.5981 109.288C97.3329 108.226 97.9945 107.124 98.6982 106.042C99.1484 105.35 100.533 103.387 100.75 103.085C101.102 102.596 101.413 101.936 101.967 101.659C102.144 101.57 102.44 101.316 102.622 101.285C102.805 101.253 103.114 101.39 103.294 101.427C103.557 101.479 103.824 101.524 104.089 101.575C104.531 101.66 104.968 101.765 105.41 101.848C105.592 101.882 105.775 101.916 105.956 101.954L106.188 102.003C106.312 102.03 106.727 102.04 106.801 102.131C106.858 102.201 106.823 102.488 106.819 102.595C106.814 102.746 106.79 102.887 106.743 103.03C106.636 103.355 106.445 103.631 106.287 103.93C106.131 104.222 105.505 105.357 106.198 105.355C106.794 105.355 107.45 104.631 107.805 104.217C108.112 103.857 108.404 103.474 108.679 103.087C109.024 102.592 109.352 102.084 109.663 101.567C110.055 100.928 110.513 100.274 110.69 99.5341C110.803 99.0625 110.779 98.1446 110.107 98.6532C109.57 99.0615 109.24 99.7081 108.662 100.067L108.713 100.045C108.373 100.235 108.06 100.468 107.73 100.673L107.757 100.664C107.679 100.709 107.603 100.762 107.521 100.8C107.3 100.906 107.006 100.885 106.764 100.874C106.442 100.86 106.11 100.766 105.788 100.713C104.971 100.58 103.902 100.514 103.399 99.7646C103.363 99.7093 103.326 99.6537 103.29 99.598C103.203 99.4647 103.167 99.4406 103.219 99.296C103.314 99.0347 103.531 98.7717 103.67 98.5312C103.864 98.1938 104.056 97.8573 104.232 97.5106C104.597 96.7948 104.965 96.0827 105.344 95.3745C106.322 93.5485 107.341 91.7181 108.644 90.0997C109.186 89.4268 109.732 88.7637 110.292 88.1058C110.416 87.9602 110.473 87.8586 110.654 87.8457C110.751 87.8383 110.855 87.8551 110.953 87.8578C111.438 87.8723 111.912 87.8904 112.392 87.9681C113.994 88.2293 115.572 88.5909 117.145 89.0004L117.077 88.9764C117.278 89.0365 117.479 89.0952 117.677 89.1613L117.678 89.1607ZM167.069 121.007C167.086 120.868 167.033 120.734 166.879 120.701C166.765 120.677 166.343 120.084 165.569 121.105C164.845 122.06 160.451 125.016 159.171 125.648C158.433 126.013 157.675 126.336 156.901 126.614C156.198 126.864 155.509 127.066 154.754 127.043C154.063 127.022 153.366 126.908 152.686 126.793C151.83 126.65 150.161 126.391 150.189 126.381C149.851 126.245 149.304 126.135 149.001 125.815C148.873 125.68 148.886 125.24 148.886 125.059C148.888 124.264 149.441 123.525 149.723 122.803C149.952 122.216 150.277 121.676 150.569 121.119C150.965 120.36 154.629 114.432 154.871 113.973C155.116 113.508 155.391 113.055 155.656 112.602C155.729 112.478 155.79 112.298 155.914 112.262C156.04 112.225 156.258 112.284 156.397 112.292C156.922 112.323 157.443 112.401 157.964 112.476C158.423 112.542 158.878 112.644 159.325 112.768C159.511 112.82 159.688 112.845 159.813 112.973C159.971 113.134 160.022 113.346 160.007 113.567C159.978 114.049 159.774 114.572 159.623 115.029C159.505 115.384 159.349 115.723 159.229 116.076C159.115 116.409 158.86 116.869 159.029 117.214C159.203 117.572 159.611 117.516 159.883 117.314C160.475 116.875 160.86 116.055 161.244 115.44C161.705 114.704 162.179 113.979 162.644 113.247C163.408 112.045 164.348 110.917 164.961 109.626C165.093 109.349 165.383 108.783 165.223 108.472C165.031 108.1 164.551 108.417 164.325 108.571C163.525 109.111 162.982 109.922 162.268 110.556C161.918 110.867 161.479 111.15 161.019 111.255C160.547 111.361 160.083 111.257 159.619 111.158C159.021 111.03 158.417 110.932 157.816 110.815C157.487 110.752 157.157 110.708 156.825 110.664C157.617 109.522 161.205 104.642 162.199 103.312C162.646 102.717 163.062 102.097 163.515 101.507C163.988 100.893 164.427 100.228 164.943 99.6505C165.212 99.3495 165.991 98.4989 166.226 98.3748C166.324 98.3219 166.926 98.3439 167.042 98.3307C167.196 98.313 167.428 98.3905 167.58 98.4143C168.4 98.5437 169.223 98.6696 170.039 98.8198C170.838 98.962 171.627 99.1572 172.4 99.4042C173.41 99.7323 174.583 100.25 174.972 101.329C175.142 101.803 175.138 102.296 175.139 102.793C175.14 103.325 175.092 103.849 174.925 104.358C174.66 105.169 174.363 105.964 174.151 106.793C174.052 107.184 173.266 108.884 174.16 108.854C174.668 108.836 174.993 108.16 175.28 107.827C175.588 107.468 175.826 107.051 176.046 106.621C176.473 105.786 177.056 105.035 177.595 104.271C178.027 103.659 178.419 102.997 178.811 102.359C179.256 101.633 179.717 100.881 179.948 100.054C180.065 99.6366 180.167 99.0869 179.818 98.7511C179.521 98.4651 177.18 98.1905 176.443 98.0651C175.623 97.9267 174.807 97.7751 173.985 97.6531C173.655 97.6038 166.239 96.292 165.251 96.0943C164.375 95.9185 159.101 94.7167 158.663 94.5693C158.437 94.4936 157.973 94.2556 157.819 94.5907C157.777 94.6784 157.759 94.7756 157.768 94.8723C157.783 94.8973 157.825 95.0408 157.858 95.0913C157.98 95.2794 158.178 95.6713 158.199 95.7958C158.237 96.0247 158.251 96.2525 158.229 96.4833C158.197 96.8565 158.007 97.0549 157.787 97.3398C157.361 97.8886 156.928 98.4314 156.516 98.9912C155.591 100.247 154.75 101.557 153.874 102.847C152.918 104.254 151.862 105.592 150.927 107.011C150.234 108.064 149.612 109.18 149.002 110.281C148.546 111.106 147.994 111.859 147.479 112.645C147.069 113.279 146.679 113.926 146.309 114.584C145.867 115.361 145.408 116.131 144.834 116.819C144.472 117.254 141.52 122.122 141.209 122.745C141.063 123.048 140.903 123.343 140.731 123.631C140.544 123.935 140.374 124.383 140.026 124.537C139.562 124.739 139.092 124.927 138.616 125.101C138.337 125.204 138.017 125.277 137.809 125.505C137.517 125.823 137.628 126.244 138.008 126.41C138.618 126.676 139.384 126.675 140.042 126.747C140.736 126.822 141.417 126.945 142.101 127.079C143.363 127.325 152.383 128.841 153.974 129.031C154.666 129.115 155.355 129.202 156.038 129.343C156.763 129.493 157.494 129.57 158.209 129.765C159.133 130.013 160.066 130.224 161.007 130.399C161.36 130.466 161.683 130.431 161.995 130.233C162.296 130.043 162.892 128.936 163.028 128.668C163.222 128.288 164.281 126.048 164.7 125.355C165.184 124.553 167.035 121.285 167.069 121.007ZM92.7144 65.6654C92.1996 67.0817 90.8114 68.0072 89.3535 68.2546C88.8277 68.3439 88.3516 68.2877 87.8289 68.2453C87.4098 68.2113 86.9811 68.2494 86.5666 68.1936C86.1317 68.1352 85.6969 68.0642 85.2584 68.0336C86.0318 67.0856 86.6866 66.0286 87.3996 65.034C87.9929 64.207 88.5706 63.2894 89.3932 62.6655C89.7458 62.3977 90.3157 62.1006 90.7629 62.1633C91.2865 62.236 91.7291 62.365 92.1651 62.6689C92.6079 62.9783 92.8959 63.3617 92.9646 63.9045C93.0409 64.506 92.8893 65.0921 92.7144 65.6654ZM88.968 71.328C88.686 72.1113 88.323 72.863 87.885 73.571C87.4136 74.3282 86.7139 74.978 85.8589 75.2568C85.0434 75.5217 84.0719 75.6054 83.2201 75.5347C82.4633 75.4718 81.7263 75.2372 80.9762 75.1213C81.6391 73.7669 82.4199 72.437 83.2336 71.1684C83.6512 70.5169 83.9899 69.8099 84.4231 69.173C84.5215 69.029 84.5924 68.8446 84.7494 68.8188C84.8661 68.7997 85.0722 68.8675 85.1936 68.8851C85.7288 68.9667 86.2656 69.037 86.8037 69.0959C87.3493 69.1538 88.0966 69.1509 88.5181 69.5478C89.0355 70.0355 89.1526 70.6618 88.968 71.328ZM96.5975 64.7945C96.5564 64.4967 96.513 64.1875 96.3673 63.9269C96.2225 63.6564 96.061 63.3951 95.8838 63.1446C95.5091 62.6336 94.8735 62.3648 94.2953 62.1602C93.5511 61.897 89.8405 61.2394 89.3344 61.1453C88.7617 61.0376 88.192 60.9206 87.6179 60.8248C86.8671 60.7002 86.1237 60.5383 85.3683 60.4425C85.0703 60.4045 83.9615 60.1307 84.2985 60.7043C84.3247 60.7497 84.3707 60.7871 84.4014 60.8454C84.4443 60.9232 84.4641 61.0259 84.4942 61.1097C84.5388 61.2335 84.5861 61.3556 84.6343 61.4773C84.7512 61.7764 84.7979 61.9414 84.6437 62.2342C84.3751 62.7454 83.9558 63.1978 83.6061 63.6533C83.3904 63.9331 83.1756 64.2126 82.9611 64.493C82.5903 64.9768 82.2342 65.4652 81.8974 65.9732C81.3476 66.8025 80.7341 67.5832 80.1793 68.4077C79.5795 69.2989 79.0153 70.2227 78.3834 71.0919C77.8466 71.829 77.2686 72.537 76.7329 73.2745C76.5477 73.5304 76.3852 73.8025 76.2159 74.069C75.9238 74.5282 75.3993 74.5694 74.9454 74.7803C74.7522 74.8701 74.6988 75.0922 74.9032 75.2088C75.0054 75.2673 75.2054 75.2812 75.3214 75.3001C75.7448 75.3699 76.1738 75.4002 76.5978 75.4598L76.9659 75.5101C77.0106 75.5163 77.0783 75.5123 77.1179 75.5311C77.2192 75.5796 78.6655 75.828 78.9196 75.8748C79.156 75.9193 80.9444 76.2012 81.1677 76.2384C81.4565 76.2833 81.7438 76.3381 82.0289 76.4026C82.9036 76.6091 83.7615 76.8402 84.6512 76.9769C85.9214 77.1725 87.2356 77.4762 88.5267 77.4323C89.0534 77.4095 89.5777 77.3456 90.0946 77.2412C90.3722 77.1868 90.6324 77.0996 90.857 76.9236C90.9501 76.8511 91.1793 76.7306 91.251 76.6356C91.3215 76.545 91.6974 76.0987 91.8516 75.9333C92.0391 75.7319 92.14 75.4559 92.2868 75.2228C92.5084 74.8715 92.6722 74.4497 92.8093 74.0616C93.2581 72.7934 93.4904 71.4818 92.7408 70.2775C92.444 69.8007 92.0262 69.4722 91.5242 69.2287C91.9108 69.2175 92.3395 69.0932 92.7063 68.9933C93.3989 68.8056 94.0754 68.4631 94.6738 68.0696C95.7236 67.3786 96.7886 66.1501 96.5969 64.7942L96.5975 64.7945ZM115.189 65.7036C115.356 65.6087 115.509 65.4211 115.454 65.2192C115.396 65.0093 115.171 65.0306 114.985 64.9863C114.488 64.8689 113.097 64.6516 112.986 64.6152C112.722 64.5278 112.344 64.4914 112.077 64.4158C111.669 64.3001 111.11 64.1658 110.686 64.2793C110.318 64.3767 110.228 64.6946 110.503 64.9901C110.823 65.3348 111.401 65.3697 111.765 65.6681C112.298 66.1043 111.539 67.0977 111.311 67.5621C111.066 68.0605 108.536 72.0912 107.919 72.9694C107.355 73.7735 106.83 74.5924 106.166 75.3207C105.468 76.0862 104.697 76.7676 103.798 77.288C102.998 77.7519 101.907 78.2472 100.98 77.859C100.763 77.7639 100.565 77.6303 100.396 77.4646C100.319 77.3921 100.244 77.3179 100.17 77.2421C100.096 77.1668 99.9701 76.4292 100.01 76.2899C100.075 76.0587 100.144 75.8284 100.217 75.599C100.483 74.767 100.928 73.7976 101.315 72.9442C101.711 72.069 102.123 71.1938 102.569 70.3428C103.152 69.2299 103.799 68.1495 104.425 67.0592C104.614 66.7277 104.828 66.4136 105.037 66.0941C105.25 65.7693 105.459 65.3686 105.804 65.1625C106.2 64.926 107.918 64.8483 107.457 64.0215C107.294 63.7295 106.924 63.6855 106.63 63.617C106.37 63.5566 106.1 63.5203 105.827 63.4525C104.986 63.2435 104.115 63.1588 103.262 63.0008C102.637 62.8852 102.047 62.7328 101.415 62.6556C101.204 62.6298 100.589 62.47 100.526 62.8072C100.51 62.8933 100.555 62.9611 100.542 63.0462C100.528 63.131 100.85 63.5261 100.986 63.6563C101.048 63.7161 101.235 63.8943 101.263 63.9239C101.311 63.975 101.344 64.0846 101.36 64.1494C101.399 64.31 101.375 64.3306 101.281 64.4824L101.313 64.4424C100.689 65.3727 100.111 66.333 99.5807 67.3199C99.2591 67.921 98.9604 68.5342 98.6292 69.13C98.3787 69.5824 98.1029 70.0217 97.8684 70.4826C97.3173 71.5703 96.7698 72.697 96.3251 73.8325C96.0791 74.4599 95.8725 75.1325 95.9534 75.8138C96.0322 76.4748 96.3757 77.0407 96.8738 77.4733C97.3004 77.8451 97.786 78.1279 98.2948 78.3734C98.6231 78.5309 98.9528 78.6075 99.2764 78.756C99.5309 78.8726 100.314 79.0756 100.436 79.0859C100.611 79.0998 100.782 79.1406 100.958 79.1509C101.308 79.1717 101.705 79.2343 102.055 79.197C102.733 79.1241 103.401 79.0745 104.03 78.8056C106.065 77.939 108.386 75.1377 109.643 72.7233C110.03 71.9796 110.436 71.2448 110.835 70.5076C111.231 69.7757 111.708 69.0906 112.069 68.3383C112.225 68.0135 112.377 67.6871 112.532 67.3609L112.796 66.8125C112.857 66.6842 113.021 66.3049 113.136 66.2154C113.322 66.0703 113.721 66.1313 113.963 66.0853C114.389 66.0064 114.81 65.9215 115.189 65.7042L115.189 65.7036ZM133.307 69.0035C133.147 68.583 132.369 68.5698 132.008 68.4961C131.425 68.377 130.842 68.2556 130.253 68.1683C129.72 68.0885 129.211 68.0098 128.686 67.8845C128.286 67.7885 127.888 67.6865 127.485 67.6087C125.881 67.3016 124.245 67.1662 122.64 66.8592C122.233 66.7814 121.825 66.7033 121.418 66.6241C120.634 66.4707 119.851 66.4211 119.062 66.3243C118.563 66.2623 118.065 66.1957 117.566 66.1405C117.353 66.1175 117.141 66.0618 116.94 66.1415C116.736 66.2215 116.535 66.3887 116.372 66.534C116.167 66.7186 116.015 66.9119 115.855 67.1357C115.691 67.3661 115.449 67.5381 115.27 67.7686C115.056 68.0446 114.689 68.6966 115.27 68.8124C115.57 68.8731 115.894 68.6282 116.136 68.4825C116.374 68.3396 116.605 68.1871 116.833 68.0307C117.387 67.6525 117.902 67.3075 118.585 67.2609C119.213 67.2168 119.858 67.3187 120.474 67.4258C120.768 67.4769 121.061 67.5345 121.356 67.5838C121.512 67.6099 122.137 67.6207 122.206 67.7486C122.11 68.1817 121.668 68.5978 121.391 68.9336C121.035 69.3692 120.695 69.817 120.37 70.276C119.721 71.1823 119.093 72.106 118.473 73.033C117.887 73.9081 117.319 74.7954 116.771 75.6944C116.567 76.0297 116.349 76.3569 116.143 76.6907C115.959 76.9894 114.672 78.9415 114.221 79.6171C113.923 80.0623 113.553 80.4404 113.032 80.6061C112.648 80.7277 112.173 80.7208 111.879 81.0363C111.453 81.491 111.94 81.8567 112.382 81.9532C112.913 82.0692 113.478 82.091 114.019 82.1353C114.956 82.2126 115.897 82.3359 116.821 82.5133C117.504 82.6448 118.18 82.8108 118.866 82.9287C119.233 82.9921 119.592 83.1076 119.961 83.1628C120.477 83.2407 120.924 82.8951 120.683 82.3459C120.543 82.0294 120.114 81.7673 120.031 81.442C119.933 81.0596 120.208 80.6366 120.385 80.3251C120.647 79.8634 120.939 79.428 121.224 78.9804C121.968 77.8119 122.689 76.627 123.474 75.4859C124.47 74.0361 125.524 72.6209 126.459 71.1291C126.713 70.7233 126.981 70.3295 127.275 69.9518C127.45 69.7288 127.629 69.5085 127.811 69.291C127.898 69.1857 128.059 68.8884 128.194 68.8322C128.242 68.8115 128.326 68.8464 128.384 68.8602C128.68 68.9294 128.978 68.9897 129.275 69.0538C129.734 69.1534 130.182 69.2566 130.646 69.3222C130.908 69.3577 131.165 69.4208 131.414 69.5106C131.622 69.5877 131.662 69.6621 131.668 69.8894C131.678 70.3209 131.437 70.7435 131.382 71.1722C131.321 71.6461 131.717 72.0187 132.011 71.5206C132.27 71.082 132.553 70.6507 132.811 70.2076C132.988 69.9043 133.457 69.385 133.307 69.0035ZM156.821 73.4683C156.915 73.6986 156.964 73.9269 156.982 74.1752C156.999 74.3945 156.947 74.7166 157.102 74.8974C157.462 75.3152 157.866 74.5748 158.054 74.3452C158.308 74.0353 158.938 73.4528 158.827 73.005C158.767 72.7666 158.556 72.758 158.356 72.7106C158.085 72.6487 157.821 72.5523 157.552 72.4818C156.404 72.1831 145.61 70.513 144.503 70.3563C144.3 70.3282 144.097 70.2998 143.895 70.2615C143.855 70.2535 143.763 70.2457 143.72 70.2259C143.674 70.2024 143.154 70.1429 143.024 70.1844C142.821 70.2489 142.651 70.2984 142.609 70.5406C142.564 70.8084 142.767 71.0269 142.972 71.1646C143.078 71.235 143.408 71.3417 143.445 71.4504C143.492 71.5919 143.259 71.9725 143.199 72.099C143.065 72.3884 142.927 72.6738 142.806 72.9705C142.024 74.8787 140.894 76.631 139.849 78.3999C139.551 78.9023 139.313 79.4368 139.008 79.9332C138.711 80.4169 138.419 80.9035 138.129 81.3904C137.874 81.8141 137.617 82.2455 137.33 82.647C137.169 82.8715 136.638 83.7577 136.465 83.9762C136.262 84.2333 136.105 84.3025 135.791 84.3763C135.544 84.434 135.29 84.4935 135.059 84.6015C134.638 84.8001 134.388 85.2582 134.918 85.4899C135.377 85.6912 135.906 85.7521 136.387 85.8873C136.731 85.9844 141.534 86.6059 141.561 86.6236C141.764 86.747 142.006 86.7007 142.106 86.4673C142.261 86.1041 141.908 85.821 141.647 85.6404C141.495 85.5355 141.367 85.495 141.362 85.317C141.357 85.1038 141.621 84.756 141.719 84.5734C141.97 84.106 142.229 83.6454 142.492 83.1848C142.859 82.5412 143.245 81.9105 143.633 81.2799C144.052 80.6008 144.464 79.9208 144.872 79.2353C144.977 79.0583 145.087 78.8837 145.199 78.7116C145.245 78.6422 145.313 78.4803 145.378 78.4379C145.478 78.3731 145.678 78.4434 145.811 78.4647C146.418 78.5648 147.027 78.649 147.634 78.7503C148.178 78.8398 148.725 78.9179 149.273 78.9844C149.64 79.051 149.055 79.8432 149.356 79.982C149.671 80.127 149.93 79.7067 150.109 79.5181C150.317 79.2997 151.35 77.9635 150.819 77.9152C150.498 77.886 150.306 78.225 149.615 78.1778C149.222 78.1512 148.929 78.0824 148.541 78.0364C147.656 77.9311 146.81 77.7052 145.954 77.4667C146.261 76.9926 146.582 76.5297 146.878 76.0484L146.844 76.0917C147.375 75.3146 147.85 74.5012 148.366 73.7138C148.752 73.125 149.273 71.9984 150.086 71.9894C150.358 71.9858 153.005 72.3204 153.539 72.4345C154.135 72.5615 156.667 73.0109 156.72 73.0729C156.756 73.1139 156.789 73.3938 156.821 73.4683ZM168.308 76.7452C168.818 76.0812 169.753 76.2421 170.472 76.004C170.732 75.9181 171.066 75.7604 171.134 75.4633C171.17 75.3005 171.103 75.1543 170.992 75.0416C170.945 74.9934 170.849 74.9059 170.774 74.8993C170.686 74.8914 170.228 74.851 170.073 74.8109C169.883 74.7612 166.372 74.2913 165.488 74.1633C164.674 74.0459 162.196 73.5319 161.745 73.5394C161.617 73.542 161.267 73.4439 161.109 73.5398C161.036 73.6057 161.006 73.6721 161.031 73.6336C160.984 73.7049 160.967 73.7474 160.978 73.842C160.986 73.9051 161.055 73.9863 161.097 74.0292C161.289 74.2311 161.458 74.4215 161.666 74.6008C161.933 74.8304 162.115 74.926 162.064 75.3218C162.013 75.7276 161.802 76.128 161.617 76.487C161.013 77.6592 158.24 82.2588 157.492 83.4473C157.161 83.9728 155.62 86.6526 155.293 86.9629C155.41 86.848 155.202 87.025 155.148 87.0577C155.036 87.1271 154.914 87.1845 154.795 87.241C154.483 87.3901 154.158 87.4837 153.835 87.6049C153.541 87.7151 152.407 88.0464 152.911 88.5561C153.126 88.7728 156.111 89.197 156.771 89.368C157.408 89.5322 161.028 90.0579 161.33 90.1182C161.566 90.1647 161.829 90.2556 162.024 90.0502C162.465 89.5809 161.685 89.2514 161.395 89.0434C161.346 89.0083 161.246 88.9553 161.207 88.902C161.138 88.8081 161.142 88.8204 161.183 88.688C161.208 88.6051 161.235 88.5231 161.266 88.4421C161.361 88.1883 161.489 87.9445 161.619 87.7078C161.9 87.1986 162.156 86.676 162.46 86.1805L162.432 86.2103C162.984 85.3996 164.628 82.4975 164.984 81.8933C165.491 81.0327 165.976 80.1592 166.548 79.3402C167.142 78.4893 167.674 77.5657 168.307 76.7458L168.308 76.7452ZM176.193 81.7172C176.828 80.753 177.35 79.7337 178.026 78.7954C178.306 78.4076 178.548 77.9965 178.816 77.6012C178.903 77.4734 178.985 77.3422 179.082 77.2214C179.131 77.1612 179.309 76.9161 179.395 76.8813C179.593 76.8029 179.82 76.8502 180.364 77.0715C180.874 77.2402 181.449 77.5806 181.703 78.0918C181.96 78.6082 181.85 79.2785 181.693 79.8138C181.578 80.2053 181.352 80.5164 181.119 80.8423C180.815 81.2682 180.501 81.6702 180.121 82.0308C179.896 82.2437 179.659 82.4433 179.423 82.6423C179.307 82.7398 179.192 82.8366 179.074 82.9312C179.009 82.9841 178.775 83.2211 178.695 83.2162C178.563 83.2073 178.26 82.884 178.132 82.8038C177.969 82.702 177.771 82.5435 177.597 82.4648C177.071 82.2255 176.585 82.0835 176.068 81.9034C176.113 81.8436 176.154 81.7815 176.193 81.7172ZM183.834 92.0055C183.864 91.8366 183.833 91.6107 183.644 91.5554C183.446 91.4985 183.272 91.7061 183.171 91.8475C182.916 92.2026 182.909 92.6273 182.48 92.86C182.152 93.0375 181.588 93.0871 181.234 93.0461C180.796 92.9948 180.542 92.5284 180.386 92.1283C179.786 90.6009 180.232 89.1442 180.192 87.5747C180.162 86.3814 179.788 85.2514 179.272 84.1902C180.068 84.1087 180.864 83.9569 181.621 83.6889C182.357 83.4288 183.125 83.2343 183.82 82.8703C184.973 82.267 185.912 81.3537 186.168 80.0404L186.184 79.9482C186.144 80.1825 186.199 79.8477 186.202 79.8263C186.21 79.7579 186.214 79.6891 186.215 79.6202C186.215 79.4466 186.196 79.2735 186.159 79.104C186.076 78.7093 185.932 78.3303 185.73 77.9812C185.35 77.3463 184.693 77.0059 184.021 76.758C183.807 76.6789 183.596 76.6006 183.369 76.5683C183.251 76.5513 182.59 76.4337 182.382 76.3866C181.65 76.2246 173.785 74.9719 173.709 74.9419C173.558 74.8823 173.408 74.9258 173.252 74.9677C172.945 75.0488 173.015 75.297 173.269 75.427C173.52 75.5577 173.814 75.6192 174.073 75.7466C174.222 75.8191 174.37 75.8265 174.36 75.9929C174.352 76.1033 174.242 76.2683 174.195 76.3746C174.066 76.6653 173.917 76.9415 173.763 77.2189C173.303 78.0447 172.784 78.8426 172.277 79.6383C171.842 80.321 170.362 82.7187 170.041 83.2295C169.744 83.7033 167.523 87.518 167.064 88.2571C166.921 88.4888 166.774 88.7164 166.61 88.9338C166.47 89.1179 166.303 89.2809 166.116 89.4181C165.989 89.5101 165.909 89.5279 165.758 89.603C165.606 89.6788 165.277 89.8176 165.3 89.9932C165.313 90.1001 165.387 90.1216 165.465 90.1523C165.585 90.2005 165.751 90.2374 165.881 90.2699C166.132 90.3329 166.392 90.3686 166.648 90.4077C167.13 90.4805 169.349 90.9455 169.977 91.0974C170.304 91.1768 171.562 91.4506 171.671 91.0231C171.739 90.7541 171.432 90.6248 171.306 90.4326C171.142 90.1836 171.113 89.9442 171.178 89.6517C171.303 89.0883 171.711 88.6087 171.993 88.1147C172.97 86.3977 174.126 84.7571 175.266 83.1476C175.298 83.1039 175.329 83.0602 175.36 83.0155C175.489 82.8309 175.489 82.7994 175.665 82.9345C175.943 83.1467 176.188 83.4449 176.311 83.7795C176.58 84.5203 176.424 85.356 176.372 86.1223C176.317 86.9401 176.314 87.7533 176.311 88.5724C176.307 89.35 176.203 90.1301 176.252 90.9064C176.301 91.6757 176.502 92.4507 176.976 93.0636C177.412 93.6277 178.039 94.0226 178.68 94.3131C179.401 94.6407 180.132 94.6808 180.91 94.5383C181.591 94.4137 182.395 94.1926 182.931 93.7261C183.469 93.2588 183.703 92.678 183.833 92.0053L183.834 92.0055Z" fill="black"/>
<path fill-rule="evenodd" clip-rule="evenodd" d="M197.563 86.7591C197.895 86.2654 198.221 85.7739 198.524 85.262C198.668 85.0195 198.808 84.771 198.941 84.5219C199.035 84.3469 199.102 84.1134 198.872 84.0034C198.638 83.8916 198.54 84.1032 198.403 84.2367C198.208 84.4293 197.495 84.6681 197.283 84.3716C197.191 84.2443 197.212 83.9326 197.199 83.7741C197.173 83.4707 197.148 83.1662 197.096 82.8659C196.968 82.1533 196.746 81.451 196.296 80.866C196.051 80.5488 195.333 80.124 194.959 79.974C194.472 79.7791 193.185 79.4042 192.827 79.348C192.326 79.2691 191.369 79.216 190.868 79.3042C190.382 79.3895 188.862 79.9934 188.463 80.3274C187.657 81.0025 187.206 81.8793 187.035 82.9063C186.832 84.1145 187.024 85.3708 187.412 86.5269C187.786 87.6418 188.195 88.8073 188.542 89.8911L188.583 90.0245C188.522 89.8412 188.585 90.0367 188.593 90.0676C188.614 90.1458 188.636 90.2251 188.656 90.304C188.695 90.4589 188.731 90.6134 188.755 90.7711C188.798 91.0649 188.799 91.3581 188.768 91.6519C188.7 92.2874 188.559 92.8994 188.228 93.4515C187.937 93.9369 187.495 94.3941 186.888 94.3971C186.211 94.4003 185.746 94.0418 185.339 93.5378C184.651 92.6855 184.161 91.6358 183.912 90.5746C183.693 89.637 183.691 88.645 183.427 87.72C183.365 87.5029 183.295 87.4064 183.077 87.5078C182.936 87.5734 182.309 88.517 182.215 88.6277C181.642 89.2979 181.138 90.0891 180.694 90.8478C180.553 91.0901 180.406 91.3295 180.257 91.5672C180.137 91.757 180.068 91.9624 179.948 92.1456C179.861 92.2777 179.741 92.3906 179.801 92.5624C179.897 92.8345 180.167 92.752 180.344 92.6375C180.571 92.4922 180.791 92.3345 181.015 92.1854C181.416 91.9192 182.042 91.4482 182.559 91.5266C182.739 91.5542 183.194 92.2332 183.364 92.4441C183.564 92.6942 183.703 93.0584 183.855 93.344C184.095 93.7906 184.417 94.2144 184.73 94.6122C184.919 94.8517 185.737 95.7009 185.885 95.7709C186.201 95.9192 186.535 96.0727 186.861 96.1946C187.853 96.5646 189.053 96.4444 190.083 96.3242C191.168 96.1981 192.243 95.6608 192.854 94.7452C193.515 93.7519 193.88 92.5607 193.71 91.3611C193.627 90.7835 193.411 90.2455 193.332 89.6708C193.244 89.0245 193.075 88.3963 192.919 87.764C192.626 86.5787 192.301 85.4323 192.147 84.2198C192.074 83.6461 191.919 82.9688 192.051 82.3949C192.179 81.8341 192.631 81.3309 193.202 81.2811C193.449 81.2598 193.832 81.2451 194.052 81.3665C194.336 81.5235 194.589 81.7056 194.81 81.9413C195.226 82.3875 195.602 82.8824 195.912 83.4158C196.449 84.3438 196.452 85.4606 196.357 86.4949C196.328 86.8088 196.284 87.1207 196.264 87.4362C196.253 87.6114 196.197 87.8533 196.274 88.0142C196.445 88.3763 196.842 87.8559 196.96 87.6715C197.155 87.3638 197.359 87.0605 197.563 86.7591ZM188.458 89.8976L188.446 89.8593L188.458 89.8976ZM217.677 84.5242C217.641 84.1964 217.313 84.0992 217.042 84.0384C216.604 83.9426 216.163 83.8566 215.723 83.7678C214.853 83.5924 210.778 82.8457 209.592 82.67C208.561 82.5173 204.692 81.791 203.764 81.7384C203.072 81.6991 202.382 81.5823 201.693 81.5063C201.39 81.4724 201.232 81.5166 200.97 81.6809C200.785 81.797 200.617 81.9534 200.466 82.111C200.316 82.2683 200.134 82.5829 200.016 82.7066C199.88 82.8492 199.509 83.2794 199.411 83.4507C199.211 83.7973 199.114 84.0098 199.478 84.1696C199.82 84.3202 200.235 83.9897 200.515 83.8181C200.89 83.5884 201.242 83.3247 201.613 83.0901C202.355 82.6208 203.107 82.599 203.954 82.6943C204.357 82.7397 206.275 82.9862 206.444 83.0929C206.625 83.2074 206.308 83.551 206.198 83.7001C205.928 84.0672 205.622 84.4047 205.341 84.7625C204.82 85.4268 204.34 86.1309 203.864 86.8277C202.942 88.1774 202.023 89.5327 201.171 90.9274C201.015 91.1833 200.852 91.4322 200.689 91.6829C200.556 91.8854 198.509 95.1998 198.032 95.6001C197.776 95.8161 197.474 95.9611 197.151 96.0397C196.831 96.1179 196.465 96.1526 196.211 96.3886C195.9 96.6774 195.991 97.0646 196.351 97.2371C196.695 97.4023 197.125 97.4085 197.497 97.4472C198.273 97.5277 202.036 98.232 203.195 98.4379C203.656 98.5192 204.709 98.8616 205.012 98.3045C205.204 97.9498 204.936 97.5828 204.721 97.3226C204.587 97.1603 204.372 96.9957 204.348 96.7825C204.286 96.2467 204.697 95.7087 204.966 95.2618C205.167 94.9281 205.394 94.6097 205.603 94.2806C206.246 93.2729 206.86 92.2363 207.539 91.2523C207.706 91.0106 207.87 90.7665 208.039 90.5269C208.483 89.8973 208.899 89.2381 209.36 88.6224C210.263 87.4169 210.985 86.0898 211.942 84.9234C212.072 84.7649 212.203 84.6075 212.334 84.4503C212.362 84.4168 212.469 84.2498 212.521 84.2276C212.674 84.1621 215.14 84.7333 215.481 84.826C215.841 84.9253 216.028 84.9717 216.006 85.3777C215.988 85.7113 215.828 86.0575 215.755 86.3845C215.698 86.6407 215.632 87.1076 215.987 87.1718C216.298 87.2275 216.455 86.7518 216.578 86.5331C216.783 86.1641 217.668 84.8645 217.677 84.5244L217.677 84.5242ZM212.562 98.6285C212.562 97.4965 211.338 96.7213 210.223 96.891C209.209 97.0458 208.209 98.5686 209.584 99.0958C209.715 99.146 210.188 99.1654 210.222 99.2994C210.271 99.4934 209.744 99.681 209.616 99.7374C209.156 99.9407 208.678 99.9263 208.195 100.047C208.021 100.09 207.791 100.217 207.91 100.422C208.002 100.58 208.362 100.688 208.527 100.746C208.962 100.902 209.424 100.973 209.886 100.957C211.241 100.902 212.554 99.9543 212.562 98.6285ZM194.561 134.138C193.667 133.569 192.457 133.844 191.672 134.46C191.238 134.801 190.866 135.22 190.904 135.797C190.935 136.272 191.151 136.713 191.536 137.003C192.325 137.595 193.744 137.42 194.381 136.698C194.977 136.024 195.55 134.766 194.561 134.138ZM194.198 126.579C194.215 126.441 194.162 126.307 194.009 126.274C193.894 126.25 193.473 125.657 192.699 126.677C191.975 127.632 187.581 130.589 186.301 131.22C185.563 131.586 184.805 131.909 184.03 132.187C183.328 132.437 182.639 132.638 181.884 132.616C181.193 132.595 180.496 132.481 179.816 132.367C178.96 132.222 177.291 131.963 177.319 131.954C176.981 131.818 176.434 131.707 176.131 131.388C176.002 131.253 176.016 130.811 176.016 130.632C176.017 129.837 176.57 129.098 176.853 128.374C177.082 127.789 177.407 127.248 177.699 126.691C178.095 125.932 181.759 120.004 182.001 119.546C182.246 119.081 182.521 118.628 182.787 118.175C182.859 118.051 182.92 117.871 183.043 117.835C183.17 117.797 183.387 117.857 183.527 117.865C184.052 117.896 184.572 117.975 185.093 118.049C185.553 118.115 186.008 118.217 186.455 118.341C186.641 118.392 186.818 118.417 186.943 118.546C187.1 118.707 187.152 118.919 187.137 119.139C187.108 119.621 186.904 120.144 186.753 120.601C186.635 120.956 186.479 121.296 186.358 121.649C186.245 121.982 185.99 122.441 186.159 122.786C186.333 123.145 186.741 123.089 187.013 122.887C187.605 122.449 187.99 121.628 188.375 121.013C188.835 120.277 189.308 119.552 189.774 118.82C190.538 117.618 191.478 116.489 192.091 115.199C192.223 114.921 192.512 114.355 192.353 114.045C192.162 113.672 191.681 113.99 191.455 114.143C190.656 114.684 190.112 115.495 189.398 116.128C189.048 116.44 188.609 116.722 188.149 116.827C187.677 116.934 187.213 116.83 186.749 116.731C186.151 116.603 185.546 116.505 184.946 116.388C184.617 116.325 184.287 116.28 183.955 116.237C184.747 115.094 188.335 110.215 189.33 108.885C189.776 108.289 190.191 107.67 190.645 107.081C191.118 106.465 191.557 105.801 192.073 105.223C192.341 104.922 193.121 104.072 193.355 103.947C193.454 103.894 194.055 103.916 194.172 103.903C194.326 103.886 194.558 103.963 194.71 103.987C195.53 104.116 196.353 104.242 197.17 104.392C197.968 104.534 198.757 104.729 199.529 104.976C200.54 105.305 201.713 105.822 202.102 106.902C202.272 107.376 202.267 107.869 202.269 108.366C202.27 108.898 202.221 109.422 202.055 109.93C201.79 110.742 201.492 111.537 201.281 112.365C201.182 112.757 200.396 114.457 201.29 114.426C201.798 114.409 202.123 113.733 202.41 113.399C202.718 113.041 202.956 112.624 203.176 112.193C203.603 111.358 204.186 110.608 204.725 109.844C205.157 109.231 205.549 108.57 205.941 107.931C206.386 107.205 206.847 106.454 207.078 105.627C207.195 105.209 207.297 104.659 206.948 104.324C206.651 104.038 204.31 103.763 203.572 103.638C202.753 103.5 201.937 103.348 201.115 103.226C200.784 103.177 193.369 101.864 192.381 101.667C191.505 101.491 186.231 100.289 185.793 100.142C185.567 100.067 185.104 99.8284 184.949 100.163C184.907 100.251 184.89 100.348 184.898 100.445C184.913 100.47 184.955 100.613 184.988 100.664C185.11 100.852 185.308 101.244 185.329 101.368C185.367 101.597 185.381 101.825 185.359 102.056C185.327 102.429 185.138 102.628 184.917 102.912C184.492 103.461 184.058 104.004 183.646 104.563C182.721 105.819 181.881 107.131 181.004 108.42C180.048 109.826 178.991 111.165 178.057 112.584C177.364 113.637 176.743 114.752 176.132 115.854C175.675 116.678 175.124 117.431 174.609 118.218C174.199 118.852 173.809 119.499 173.439 120.157C172.996 120.934 172.538 121.703 171.964 122.392C171.602 122.827 168.649 127.695 168.339 128.318C168.19 128.619 168.037 128.917 167.861 129.204C167.674 129.508 167.504 129.956 167.156 130.11C166.692 130.312 166.221 130.5 165.746 130.673C165.467 130.777 165.147 130.85 164.939 131.078C164.647 131.395 164.758 131.816 165.138 131.983C165.747 132.249 166.514 132.248 167.172 132.319C167.866 132.394 168.547 132.518 169.231 132.651C170.493 132.898 179.513 134.413 181.104 134.604C181.796 134.687 182.485 134.774 183.168 134.916C183.893 135.066 184.624 135.143 185.339 135.337C186.263 135.585 187.196 135.797 188.137 135.971C188.49 136.038 188.813 136.004 189.125 135.806C189.426 135.616 190.022 134.508 190.158 134.241C190.352 133.86 191.411 131.621 191.83 130.927C192.314 130.126 194.165 126.858 194.198 126.58" fill="black"/>
</svg>
